<svg xmlns="http://www.w3.org/2000/svg" fill="none" viewBox="0 0 24 24" height="48" width="48"><path fill="#ffffff" fill-rule="evenodd" d="M5 1C2.79086 1 1 2.79086 1 5V19C1 21.2091 2.79086 23 5 23H19C21.2091 23 23 21.2091 23 19V5C23 2.79086 21.2091 1 19 1H5ZM12 4.5C7.85786 4.5 4.5 7.85786 4.5 12C4.5 13.3201 4.84133 14.5614 5.44074 15.6395L4.77276 19.2272L8.36053 18.5593C9.43864 19.1587 10.6799 19.5 12 19.5C16.1421 19.5 19.5 16.1421 19.5 12C19.5 7.85786 16.1421 4.5 12 4.5ZM10.0534 7.87944C9.73228 7.86446 9.13723 7.90374 8.69081 8.35016C7.96391 9.07705 7.95625 10.2189 8.2413 11.257C8.53158 12.3141 9.15514 13.3916 9.88186 14.1183C10.6086 14.8451 11.6861 15.4686 12.7432 15.759C13.7814 16.044 14.9232 16.0364 15.6501 15.3095C16.0965 14.8631 16.1358 14.2681 16.1208 13.947C16.107 13.6502 15.9351 13.4181 15.7361 13.2761L14.8264 12.627C14.4196 12.3367 13.8626 12.3829 13.5092 12.7363L13.0498 13.1957C12.679 13.0439 12.0823 12.7382 11.6722 12.3281C11.2621 11.918 10.9564 11.3213 10.8047 10.9505L11.264 10.4911C11.6174 10.1377 11.6637 9.58065 11.3734 9.17384L10.7242 8.26414C10.5822 8.06515 10.3501 7.89328 10.0534 7.87944Z" clip-rule="evenodd"></path></svg>